<mxfile host="www.draw.io" modified="2020-01-28T03:28:37.721Z" agent="Mozilla/5.0 (Windows NT 10.0; Win64; x64) AppleWebKit/537.36 (KHTML, like Gecko) Chrome/79.0.3945.130 Safari/537.36" etag="ZfZyjb2Jb_RilEuYIIBS" version="12.5.8" type="github">
  <diagram id="D6Z4ycJAGKa7pl4nYZHq" name="Page-1">
    <mxGraphModel dx="1264" dy="533" grid="1" gridSize="10" guides="1" tooltips="1" connect="1" arrows="1" fold="1" page="1" pageScale="1" pageWidth="850" pageHeight="1100" math="0" shadow="0">
      <root>
        <mxCell id="0"/>
        <mxCell id="1" parent="0"/>
        <mxCell id="THJv0IypbjnNJpNrSFiM-1" value="hesabyar system" style="shape=umlLifeline;perimeter=lifelinePerimeter;whiteSpace=wrap;html=1;container=1;collapsible=0;recursiveResize=0;outlineConnect=0;rounded=1;shadow=0;comic=0;labelBackgroundColor=none;strokeColor=#000000;strokeWidth=1;fillColor=#FFFFFF;fontFamily=Verdana;fontSize=12;fontColor=#000000;align=center;" parent="1" vertex="1">
          <mxGeometry x="240" y="80" width="100" height="490" as="geometry"/>
        </mxCell>
        <mxCell id="THJv0IypbjnNJpNrSFiM-2" value="" style="html=1;points=[];perimeter=orthogonalPerimeter;rounded=0;shadow=0;comic=0;labelBackgroundColor=none;strokeColor=#000000;strokeWidth=1;fillColor=#FFFFFF;fontFamily=Verdana;fontSize=12;fontColor=#000000;align=center;" parent="THJv0IypbjnNJpNrSFiM-1" vertex="1">
          <mxGeometry x="45" y="100" width="10" height="340" as="geometry"/>
        </mxCell>
        <mxCell id="THJv0IypbjnNJpNrSFiM-6" value="" style="endArrow=none;dashed=1;html=1;" parent="1" source="THJv0IypbjnNJpNrSFiM-11" edge="1">
          <mxGeometry width="50" height="50" relative="1" as="geometry">
            <mxPoint x="151" y="660" as="sourcePoint"/>
            <mxPoint x="151" y="120" as="targetPoint"/>
          </mxGeometry>
        </mxCell>
        <mxCell id="THJv0IypbjnNJpNrSFiM-7" value="user&lt;br&gt;" style="shape=umlActor;html=1;verticalLabelPosition=bottom;verticalAlign=top;align=center;" parent="1" vertex="1">
          <mxGeometry x="135" y="70" width="30" height="60" as="geometry"/>
        </mxCell>
        <mxCell id="THJv0IypbjnNJpNrSFiM-11" value="" style="html=1;points=[];perimeter=orthogonalPerimeter;" parent="1" vertex="1">
          <mxGeometry x="145" y="180" width="10" height="340" as="geometry"/>
        </mxCell>
        <mxCell id="THJv0IypbjnNJpNrSFiM-12" value="" style="endArrow=none;dashed=1;html=1;" parent="1" target="THJv0IypbjnNJpNrSFiM-11" edge="1">
          <mxGeometry width="50" height="50" relative="1" as="geometry">
            <mxPoint x="151" y="570" as="sourcePoint"/>
            <mxPoint x="151" y="120" as="targetPoint"/>
          </mxGeometry>
        </mxCell>
        <mxCell id="THJv0IypbjnNJpNrSFiM-16" value="&lt;i style=&quot;font-family: &amp;#34;helvetica&amp;#34; ; white-space: nowrap&quot;&gt;FinancialAccount:&lt;/i&gt;&lt;i style=&quot;font-family: &amp;#34;helvetica&amp;#34; ; white-space: nowrap&quot;&gt;FinancialAccount&lt;/i&gt;" style="shape=umlLifeline;perimeter=lifelinePerimeter;whiteSpace=wrap;html=1;container=1;collapsible=0;recursiveResize=0;outlineConnect=0;rounded=1;shadow=0;comic=0;labelBackgroundColor=none;strokeColor=#000000;strokeWidth=1;fillColor=#FFFFFF;fontFamily=Verdana;fontSize=12;fontColor=#000000;align=center;size=40;" parent="1" vertex="1">
          <mxGeometry x="400" y="80" width="100" height="490" as="geometry"/>
        </mxCell>
        <mxCell id="THJv0IypbjnNJpNrSFiM-17" value="" style="html=1;points=[];perimeter=orthogonalPerimeter;rounded=0;shadow=0;comic=0;labelBackgroundColor=none;strokeColor=#000000;strokeWidth=1;fillColor=#FFFFFF;fontFamily=Verdana;fontSize=12;fontColor=#000000;align=center;" parent="THJv0IypbjnNJpNrSFiM-16" vertex="1">
          <mxGeometry x="45" y="100" width="10" height="340" as="geometry"/>
        </mxCell>
        <mxCell id="THJv0IypbjnNJpNrSFiM-27" value="Text" style="text;html=1;align=center;verticalAlign=middle;resizable=0;points=[];autosize=1;" parent="1" vertex="1">
          <mxGeometry x="999" y="228" width="40" height="20" as="geometry"/>
        </mxCell>
        <mxCell id="THJv0IypbjnNJpNrSFiM-28" value="" style="endArrow=classic;html=1;entryX=-0.34;entryY=0.064;entryDx=0;entryDy=0;entryPerimeter=0;" parent="1" target="THJv0IypbjnNJpNrSFiM-2" edge="1">
          <mxGeometry width="50" height="50" relative="1" as="geometry">
            <mxPoint x="155" y="200" as="sourcePoint"/>
            <mxPoint x="205" y="150" as="targetPoint"/>
          </mxGeometry>
        </mxCell>
        <mxCell id="THJv0IypbjnNJpNrSFiM-31" value="" style="endArrow=classic;html=1;" parent="1" edge="1">
          <mxGeometry width="50" height="50" relative="1" as="geometry">
            <mxPoint x="300" y="228" as="sourcePoint"/>
            <mxPoint x="440" y="228" as="targetPoint"/>
          </mxGeometry>
        </mxCell>
        <mxCell id="THJv0IypbjnNJpNrSFiM-34" value="" style="endArrow=classic;html=1;" parent="1" edge="1">
          <mxGeometry width="50" height="50" relative="1" as="geometry">
            <mxPoint x="320" y="370" as="sourcePoint"/>
            <mxPoint x="300" y="370" as="targetPoint"/>
          </mxGeometry>
        </mxCell>
        <mxCell id="THJv0IypbjnNJpNrSFiM-36" value="" style="endArrow=none;dashed=1;html=1;" parent="1" edge="1">
          <mxGeometry width="50" height="50" relative="1" as="geometry">
            <mxPoint x="310" y="280" as="sourcePoint"/>
            <mxPoint x="440" y="280" as="targetPoint"/>
          </mxGeometry>
        </mxCell>
        <mxCell id="THJv0IypbjnNJpNrSFiM-38" value="" style="endArrow=classic;html=1;" parent="1" edge="1">
          <mxGeometry width="50" height="50" relative="1" as="geometry">
            <mxPoint x="310" y="280" as="sourcePoint"/>
            <mxPoint x="300" y="280" as="targetPoint"/>
            <Array as="points">
              <mxPoint x="300" y="280"/>
            </Array>
          </mxGeometry>
        </mxCell>
        <mxCell id="THJv0IypbjnNJpNrSFiM-39" value="" style="endArrow=none;dashed=1;html=1;" parent="1" edge="1">
          <mxGeometry width="50" height="50" relative="1" as="geometry">
            <mxPoint x="320" y="370" as="sourcePoint"/>
            <mxPoint x="440" y="370" as="targetPoint"/>
          </mxGeometry>
        </mxCell>
        <mxCell id="THJv0IypbjnNJpNrSFiM-40" value="addIncome_outcome()" style="text;html=1;strokeColor=none;fillColor=none;align=center;verticalAlign=middle;whiteSpace=wrap;rounded=0;" parent="1" vertex="1">
          <mxGeometry x="200" y="180" width="40" height="20" as="geometry"/>
        </mxCell>
        <mxCell id="THJv0IypbjnNJpNrSFiM-41" value="" style="endArrow=classic;html=1;exitX=1.26;exitY=0.416;exitDx=0;exitDy=0;exitPerimeter=0;" parent="1" source="THJv0IypbjnNJpNrSFiM-2" edge="1">
          <mxGeometry width="50" height="50" relative="1" as="geometry">
            <mxPoint x="140" y="640" as="sourcePoint"/>
            <mxPoint x="440" y="321" as="targetPoint"/>
          </mxGeometry>
        </mxCell>
        <mxCell id="THJv0IypbjnNJpNrSFiM-42" value="getAccountBalance()" style="text;html=1;strokeColor=none;fillColor=none;align=center;verticalAlign=middle;whiteSpace=wrap;rounded=0;" parent="1" vertex="1">
          <mxGeometry x="340" y="210" width="40" height="20" as="geometry"/>
        </mxCell>
        <mxCell id="THJv0IypbjnNJpNrSFiM-43" value="return Result()" style="text;html=1;strokeColor=none;fillColor=none;align=center;verticalAlign=middle;whiteSpace=wrap;rounded=0;" parent="1" vertex="1">
          <mxGeometry x="320" y="260" width="90" height="20" as="geometry"/>
        </mxCell>
        <mxCell id="THJv0IypbjnNJpNrSFiM-45" value="editBalance()" style="text;html=1;strokeColor=none;fillColor=none;align=center;verticalAlign=middle;whiteSpace=wrap;rounded=0;" parent="1" vertex="1">
          <mxGeometry x="340" y="300" width="40" height="20" as="geometry"/>
        </mxCell>
        <mxCell id="THJv0IypbjnNJpNrSFiM-50" value="return Result()" style="text;html=1;strokeColor=none;fillColor=none;align=center;verticalAlign=middle;whiteSpace=wrap;rounded=0;" parent="1" vertex="1">
          <mxGeometry x="320" y="350" width="100" height="20" as="geometry"/>
        </mxCell>
        <mxCell id="THJv0IypbjnNJpNrSFiM-51" value="" style="endArrow=none;dashed=1;html=1;" parent="1" edge="1">
          <mxGeometry width="50" height="50" relative="1" as="geometry">
            <mxPoint x="170" y="400" as="sourcePoint"/>
            <mxPoint x="280" y="400" as="targetPoint"/>
          </mxGeometry>
        </mxCell>
        <mxCell id="THJv0IypbjnNJpNrSFiM-52" value="" style="endArrow=classic;html=1;" parent="1" edge="1">
          <mxGeometry width="50" height="50" relative="1" as="geometry">
            <mxPoint x="180" y="400" as="sourcePoint"/>
            <mxPoint x="160" y="400" as="targetPoint"/>
          </mxGeometry>
        </mxCell>
        <mxCell id="THJv0IypbjnNJpNrSFiM-54" value="msg &quot;successfully&quot;" style="text;html=1;" parent="1" vertex="1">
          <mxGeometry x="165" y="370" width="110" height="30" as="geometry"/>
        </mxCell>
      </root>
    </mxGraphModel>
  </diagram>
</mxfile>
